<svg xmlns="http://www.w3.org/2000/svg" viewBox="4574 220 20 20"><defs><style>.cls-1 { fill: #868E97; } .cls-2 { fill: none; }</style></defs><g id="optional-menu-link"><g id="group1"><path id="path1" class="cls-1" d="M543.382 912.2l-.1-.3a.372.372 0 0 0-.3-.1l-.3.1-5.772 5.768a.372.372 0 0 0-.1.3l.1.3a.49.49 0 0 0 .709 0l5.772-5.768-.009-.3z" transform="translate(4044 -685) translate(.064 .063)"/><path id="path2" class="cls-1" d="M540.307 916.73l-.709.708c.1.1.1.2.2.4a1.118 1.118 0 0 1-.405 1.214l-3.038 3.036a2.173 2.173 0 0 1-.709.4h-.3a1.072 1.072 0 0 1-.911-.506l-1.316-1.315a2.171 2.171 0 0 1-.405-.708 1.117 1.117 0 0 1 .405-1.214l3.038-3.036a1.726 1.726 0 0 1 .709-.4.985.985 0 0 1 .911.1l.709-.708a2.134 2.134 0 0 0-1.316-.506 2.666 2.666 0 0 0-1.721.708l-3.038 3.036a2.3 2.3 0 0 0 0 3.339l1.418 1.417a2.158 2.158 0 0 0 1.62.708 2.666 2.666 0 0 0 1.721-.708l3.038-3.036a2.285 2.285 0 0 0 .099-2.929z" transform="translate(4044 -685) translate(0 .092)"/><path id="path3" class="cls-1" d="M547.906 908.625l-1.418-1.417a2.158 2.158 0 0 0-1.62-.708 2.666 2.666 0 0 0-1.721.708l-3.038 3.036a2.354 2.354 0 0 0-.3 3.036l.709-.708c-.1-.1-.1-.2-.2-.4a1.118 1.118 0 0 1 .405-1.214l3.038-3.036a1.725 1.725 0 0 1 .709-.4h.3a1.072 1.072 0 0 1 .911.506l1.316 1.315a2.173 2.173 0 0 1 .405.708 1.118 1.118 0 0 1-.405 1.214l-3.038 3.036a2.176 2.176 0 0 1-.709.4.985.985 0 0 1-.911-.1l-.709.708a2.134 2.134 0 0 0 1.316.506 2.666 2.666 0 0 0 1.721-.708l3.038-3.036a2.386 2.386 0 0 0 .201-3.446z" transform="translate(4044 -685) translate(.097)"/></g><path id="rectangle1" class="cls-2" d="M4574 220h20v20h-20z"/></g></svg>